<svg width="181" height="23" viewBox="0 0 181 23" fill="none" xmlns="http://www.w3.org/2000/svg">
<path d="M16.9308 8.0077C17.1326 8.15447 17.2793 8.26454 17.3711 8.33792C17.4811 8.39296 17.5637 8.43882 17.6187 8.47552C17.6921 8.51221 17.7563 8.55807 17.8114 8.61311C17.8847 8.66815 17.9948 8.7507 18.1416 8.86078C18.0499 9.06258 18.004 9.21852 18.004 9.32859C18.004 9.43867 18.0132 9.54874 18.0315 9.65881C18.0499 9.75054 18.0682 9.85145 18.0865 9.96152C18.1232 10.0716 18.1324 10.2184 18.1141 10.4018C17.105 11.0439 16.2061 11.5576 15.4172 11.9429C14.6467 12.3098 13.8945 12.6308 13.1607 12.906C12.4452 13.1812 11.6931 13.4472 10.9042 13.704C10.1337 13.9425 9.23473 14.2636 8.20737 14.6672C8.62932 14.924 9.17052 15.1534 9.83097 15.3552C10.5098 15.5386 11.1794 15.7588 11.8398 16.0156C12.5186 16.2541 13.1332 16.5568 13.6836 16.9237C14.2339 17.2906 14.6009 17.7676 14.7843 18.3547C15.0412 18.373 15.2613 18.5198 15.4448 18.795C15.6466 19.0702 15.7291 19.3912 15.6924 19.7581C15.509 19.8682 15.3347 19.9966 15.1696 20.1434C15.0228 20.2718 14.8302 20.3727 14.5917 20.4461C14.3899 20.4828 14.1239 20.4644 13.7936 20.3911C13.4818 20.3177 13.1332 20.2168 12.7479 20.0884C12.381 19.9599 11.9866 19.8223 11.5646 19.6756C11.161 19.5288 10.7758 19.4096 10.4089 19.3178C10.0419 19.2261 9.63834 19.1436 9.19804 19.0702C8.77609 18.9968 8.38166 18.8867 8.01474 18.7399C7.84963 18.6666 7.70286 18.584 7.57444 18.4923C7.46437 18.3822 7.32678 18.3088 7.16167 18.2721C6.83144 18.2171 6.4737 18.1162 6.08844 17.9694C5.72153 17.8043 5.34544 17.63 4.96018 17.4466C4.57492 17.2631 4.18966 17.0797 3.8044 16.8962C3.43748 16.7127 3.08892 16.5476 2.75869 16.4009C2.77704 16.2908 2.65779 16.1532 2.40095 15.9881C2.14411 15.823 1.86892 15.7312 1.57539 15.7129C1.57539 15.4928 1.48366 15.3001 1.30021 15.135C1.1351 14.9516 1.00668 14.7498 0.914947 14.5296C0.713144 14.0159 0.786527 13.5298 1.1351 13.0711C1.48366 12.6125 2.00652 12.3373 2.70365 12.2456C2.9238 12.3189 3.08892 12.3556 3.19899 12.3556C3.32741 12.3373 3.49252 12.374 3.69432 12.4657C4.02455 12.2456 4.41898 12.0346 4.87762 11.8328C5.35461 11.6126 5.81326 11.5484 6.25355 11.6402C6.30859 11.4934 6.40949 11.42 6.55626 11.42C6.72137 11.42 6.82227 11.3374 6.85896 11.1723C7.61114 11.0439 8.34497 10.8421 9.06045 10.5669C9.77593 10.2917 10.4731 9.99821 11.1519 9.68633C11.8307 9.35611 12.4819 9.03506 13.1057 8.72318C13.7478 8.39296 14.3624 8.09943 14.9494 7.84259C15.2063 7.91597 15.4448 7.91597 15.6649 7.84259C15.8851 7.75086 16.1144 7.71417 16.3529 7.73251C16.2978 7.78755 16.2887 7.82424 16.3254 7.84259C16.362 7.86093 16.4171 7.87928 16.4905 7.89763C16.5638 7.89763 16.6372 7.9068 16.7106 7.92514C16.8023 7.92514 16.8757 7.95266 16.9308 8.0077Z" fill="#313235"/>
<path d="M19.6551 13.4013C19.6735 13.328 19.7101 13.3004 19.7652 13.3188C19.8386 13.3188 19.9028 13.3096 19.9578 13.2913C19.811 13.1445 19.7193 12.9519 19.6826 12.7134C19.6459 12.4565 19.5542 12.2456 19.4074 12.0805C19.4441 11.9887 19.4716 11.897 19.49 11.8053C19.5267 11.7135 19.6092 11.6768 19.7377 11.6952C19.6826 11.2916 19.6918 10.9155 19.7652 10.5669C19.8386 10.2184 19.9486 9.88814 20.0954 9.57626C20.2605 9.26438 20.444 8.96168 20.6458 8.66815C20.8659 8.35627 21.0769 8.04439 21.2787 7.73251C21.4438 7.69582 21.5447 7.71417 21.5814 7.78755C21.6181 7.84259 21.6823 7.82424 21.774 7.73251C22.0676 7.53071 22.2694 7.31056 22.3794 7.07207C22.4895 6.81523 22.5446 6.54004 22.5446 6.24651C22.7097 5.76952 22.8931 5.30171 23.0949 4.84306C23.3151 4.36607 23.5627 3.92578 23.8379 3.52217C24.1131 3.11856 24.4066 2.77 24.7185 2.47646C25.0304 2.16459 25.3698 1.92609 25.7367 1.76098C25.9936 1.54083 26.3146 1.33903 26.6999 1.15557C27.1035 0.972114 27.5254 0.834521 27.9657 0.742793C28.4244 0.632718 28.8922 0.577681 29.3692 0.577681C29.8462 0.559335 30.2865 0.6052 30.6901 0.715274C30.7818 0.751966 30.8368 0.73362 30.8552 0.660237C30.8735 0.568508 30.9194 0.522644 30.9928 0.522644C31.91 0.632718 32.7264 0.816176 33.4419 1.07302C34.1757 1.32986 34.7995 1.6876 35.3132 2.14624C35.6618 2.69661 35.992 3.29285 36.3039 3.93495C36.6157 4.5587 36.8542 5.21915 37.0193 5.91629C37.2028 6.59508 37.2853 7.30139 37.267 8.03522C37.2487 8.76905 37.0927 9.50288 36.7992 10.2367C36.1571 11.0439 35.3774 11.6952 34.4601 12.1905C33.5428 12.6675 32.5522 13.0711 31.4881 13.4013C30.4424 13.7132 29.3508 13.9701 28.2134 14.1719C27.0943 14.3737 26.0027 14.5938 24.9387 14.8323C24.957 15.3276 24.957 15.8597 24.9387 16.4284C24.9203 16.9788 24.8561 17.5383 24.746 18.107C24.6543 18.6574 24.5075 19.1986 24.3057 19.7306C24.1223 20.2626 23.8654 20.758 23.5352 21.2166C23.1683 21.1983 22.7831 21.235 22.3794 21.3267C21.9942 21.4184 21.6456 21.5102 21.3337 21.6019C21.187 21.5102 21.0402 21.4184 20.8934 21.3267C20.765 21.2533 20.5999 21.2074 20.3981 21.1891C20.4531 20.969 20.3981 20.7396 20.233 20.5011C20.0862 20.2626 19.9303 20.0333 19.7652 19.8132C19.6184 19.5747 19.5175 19.3454 19.4625 19.1252C19.4258 18.8867 19.5359 18.6757 19.7927 18.4923C19.6459 18.3639 19.5725 18.1621 19.5725 17.8869C19.6459 17.9603 19.7377 17.9969 19.8477 17.9969C19.811 17.6667 19.8477 17.2723 19.9578 16.8136C20.0862 16.355 20.1871 15.9055 20.2605 15.4652C20.3522 15.0066 20.3706 14.5938 20.3156 14.2269C20.2605 13.8416 20.0404 13.5665 19.6551 13.4013ZM26.8099 6.96199C26.7366 7.1638 26.6723 7.34725 26.6173 7.51237C26.5806 7.65913 26.5348 7.79672 26.4797 7.92514C26.4247 8.05356 26.3605 8.18198 26.2871 8.3104C26.232 8.43882 26.1678 8.58559 26.0945 8.7507C26.1311 8.86078 26.2045 8.94333 26.3146 8.99837C26.4247 9.05341 26.4981 9.13596 26.5348 9.24604C26.7916 9.11762 27.0484 9.02589 27.3053 8.97085C27.5621 8.89747 27.819 8.84243 28.0758 8.80574C28.3326 8.76905 28.5895 8.72318 28.8463 8.66815C29.1032 8.61311 29.3692 8.52138 29.6444 8.39296C29.9195 8.26454 30.2039 8.16364 30.4974 8.09026C30.8093 7.99853 31.112 7.9068 31.4055 7.81507C31.6991 7.72334 31.9834 7.62244 32.2586 7.51237C32.5338 7.38395 32.7723 7.21883 32.9741 7.01703C32.7173 6.77854 32.332 6.56756 31.8183 6.3841C31.3046 6.20065 30.7451 6.09057 30.1397 6.05388C29.5526 5.99884 28.9564 6.03553 28.351 6.16395C27.7639 6.29237 27.2502 6.55839 26.8099 6.96199Z" fill="#7052E0"/>
<path d="M51.9344 12.906C51.9161 13.1262 51.9344 13.3371 51.9894 13.5389C52.0445 13.7407 52.1087 13.9425 52.1821 14.1443C52.2738 14.3278 52.3564 14.5204 52.4297 14.7222C52.5031 14.924 52.5582 15.1258 52.5949 15.3276C52.6315 15.5845 52.6315 15.8688 52.5949 16.1807C52.5582 16.4743 52.494 16.7678 52.4022 17.0613C52.3105 17.3365 52.1912 17.5933 52.0445 17.8318C51.8977 18.052 51.7234 18.2171 51.5216 18.3272C51.2648 18.6574 50.9529 18.9142 50.586 19.0977C50.2191 19.2811 49.8797 19.5013 49.5678 19.7581C49.366 19.8866 49.1367 19.9783 48.8798 20.0333C48.6414 20.0884 48.3937 20.1434 48.1368 20.1984C47.935 20.3085 47.6965 20.4278 47.4214 20.5562C47.1462 20.6662 46.8618 20.7763 46.5683 20.8864C46.2748 20.9781 45.9812 21.0515 45.6877 21.1065C45.3942 21.1432 45.1373 21.1524 44.9172 21.1341C44.3668 21.3359 43.8256 21.4643 43.2936 21.5193C42.7799 21.5927 42.1745 21.556 41.4773 21.4093C40.8169 21.501 40.2023 21.4735 39.6336 21.3267C39.0832 21.1799 38.5879 20.9506 38.1476 20.6387C37.7256 20.3085 37.3496 19.9232 37.0193 19.483C36.7075 19.0243 36.4506 18.5473 36.2488 18.052C36.102 17.0063 36.1387 16.0615 36.3589 15.2176C36.579 14.3553 36.8909 13.5665 37.2945 12.851C37.7165 12.1171 38.1935 11.4475 38.7255 10.8421C39.2575 10.2184 39.7712 9.61295 40.2665 9.02589C40.3766 9.06258 40.4592 9.06258 40.5142 9.02589C40.5876 8.97085 40.6518 8.90664 40.7068 8.83326C40.7619 8.74153 40.8169 8.65897 40.8719 8.58559C40.9453 8.51221 41.0279 8.46634 41.1196 8.448C41.248 8.17281 41.4315 7.97101 41.67 7.84259C41.9268 7.69582 42.1286 7.49402 42.2754 7.23718C42.4405 7.20049 42.5781 7.14545 42.6882 7.07207C42.7982 6.99868 42.8991 6.91613 42.9909 6.8244C43.1009 6.73267 43.211 6.65012 43.3211 6.57673C43.4312 6.485 43.5596 6.42079 43.7064 6.3841V6.0814C44.0366 5.93463 44.2751 5.76952 44.4218 5.58606C44.5869 5.38426 44.7796 5.14577 44.9997 4.87058C45.1648 4.85224 45.2933 4.84306 45.385 4.84306C45.4951 4.84306 45.651 4.82472 45.8528 4.78803C45.9996 4.53118 46.128 4.33855 46.2381 4.21013C46.3665 4.08171 46.5499 3.94412 46.7884 3.79736C47.0086 3.90743 47.2471 3.98081 47.5039 4.0175C47.7791 4.0542 48.0176 4.17344 48.2194 4.37525C48.2377 4.5587 48.2928 4.70547 48.3845 4.81554C48.4762 4.90727 48.5771 4.999 48.6872 5.09073C48.7973 5.16411 48.8982 5.24667 48.9899 5.3384C49.1 5.43013 49.1734 5.55855 49.2101 5.72366C49.2835 5.742 49.3293 5.73283 49.3477 5.69614C49.3844 5.65945 49.4394 5.65027 49.5128 5.66862C49.5678 5.92546 49.632 6.09974 49.7054 6.19147C49.7788 6.26486 49.8522 6.42079 49.9256 6.65929C49.8338 6.84275 49.7604 7.03538 49.7054 7.23718C49.6687 7.42064 49.5586 7.55823 49.3752 7.64996C49.3568 7.77838 49.3935 7.85176 49.4853 7.87011C49.577 7.87011 49.632 7.91597 49.6504 8.0077C49.6687 8.17281 49.6412 8.29206 49.5678 8.36544C50.0081 9.08092 50.4025 9.84227 50.7511 10.6495C51.0997 11.4384 51.4941 12.1905 51.9344 12.906ZM48.4946 15.5203C48.568 15.3185 48.6597 15.1534 48.7698 15.0249C48.8982 14.8965 48.9716 14.7039 48.9899 14.447C48.8982 14.3003 48.8432 14.1902 48.8248 14.1168C48.8065 14.0251 48.7973 13.8875 48.7973 13.704C48.3937 13.1353 48.0451 12.5299 47.7516 11.8878C47.4581 11.2274 47.1278 10.6128 46.7609 10.0441C46.7242 10.1175 46.66 10.1908 46.5683 10.2642C46.4766 10.3376 46.3757 10.3193 46.2656 10.2092C46.2289 10.356 46.1647 10.466 46.0729 10.5394C45.9812 10.5944 45.8803 10.622 45.7702 10.622C45.6602 10.6036 45.5409 10.5761 45.4125 10.5394C45.3024 10.4844 45.2015 10.4202 45.1098 10.3468C44.5778 10.7687 44.0457 11.1815 43.5137 11.5851C42.9817 11.9887 42.5047 12.4565 42.0828 12.9886C42.0094 13.0253 41.9635 13.0436 41.9452 13.0436C41.9268 13.0253 41.8718 13.0344 41.78 13.0711C41.6333 13.4197 41.4498 13.7407 41.2297 14.0343C41.0279 14.3095 40.8261 14.5938 40.6243 14.8873C40.4225 15.1809 40.2482 15.4928 40.1014 15.823C39.9546 16.1532 39.8721 16.5385 39.8537 16.9788C40.1656 17.2356 40.5325 17.3915 40.9545 17.4466C41.3764 17.5016 41.8076 17.5108 42.2479 17.4741C42.7065 17.4374 43.1468 17.3824 43.5688 17.309C44.0091 17.2173 44.4127 17.1714 44.7796 17.1714C45.5501 16.9879 46.2105 16.7494 46.7609 16.4559C47.3113 16.144 47.8892 15.8322 48.4946 15.5203Z" fill="#7052E0"/>
<path d="M58.0435 18.2997C57.8417 19.0335 57.6583 19.593 57.4932 19.9783C57.3464 20.3452 57.1171 20.7305 56.8052 21.1341C56.5667 21.0974 56.4016 21.1249 56.3099 21.2166C56.2181 21.3084 56.1172 21.3909 56.0072 21.4643C55.842 21.501 55.7228 21.501 55.6494 21.4643C55.576 21.4276 55.5118 21.3817 55.4568 21.3267C55.4018 21.29 55.3284 21.2441 55.2366 21.1891C55.1633 21.1524 55.044 21.1341 54.8789 21.1341C54.8422 20.9873 54.7963 20.8497 54.7413 20.7213C54.7046 20.5929 54.5854 20.547 54.3836 20.5837C54.4203 20.4369 54.4294 20.3177 54.4111 20.226C54.3927 20.1159 54.3652 20.0241 54.3285 19.9508C54.3102 19.859 54.2918 19.7765 54.2735 19.7031C54.2551 19.6114 54.2643 19.5013 54.301 19.3729C54.2093 19.3729 54.1359 19.3087 54.0809 19.1802C54.0258 19.0518 53.9616 18.9234 53.8882 18.795C53.9433 18.4648 53.9983 18.1529 54.0533 17.8594C54.1084 17.5658 54.1726 17.2906 54.246 17.0338C54.3377 16.777 54.4111 16.5201 54.4661 16.2633C54.5212 16.0064 54.4936 15.7404 54.3836 15.4652C54.4569 15.5203 54.512 15.5111 54.5487 15.4377C54.5854 15.346 54.6129 15.2359 54.6312 15.1075C54.6496 14.9607 54.6587 14.8231 54.6587 14.6947C54.6587 14.548 54.6496 14.4287 54.6312 14.337C54.8147 13.86 54.9615 13.3738 55.0715 12.8785C55.1999 12.3648 55.31 11.8603 55.4018 11.365C55.5118 10.8696 55.6219 10.3835 55.732 9.90648C55.842 9.42949 55.9888 8.9892 56.1723 8.58559C56.3741 8.5489 56.5942 8.57642 56.8327 8.66815C57.0896 8.74153 57.2455 8.84243 57.3005 8.97085C57.7775 8.60394 58.1995 8.16364 58.5664 7.64996C58.9333 7.11793 59.3094 6.60425 59.6946 6.10892C60.0799 5.61358 60.5019 5.17329 60.9605 4.78803C61.4375 4.40276 62.0337 4.17344 62.7492 4.10006C63.1161 4.37525 63.5197 4.6596 63.96 4.95314C64.4187 5.22832 64.7948 5.59524 65.0883 6.05388C65.2351 6.12726 65.3543 6.20982 65.446 6.30155C65.5561 6.37493 65.6845 6.45749 65.8313 6.54921V6.87944C66.0514 7.08124 66.2257 7.31974 66.3541 7.59492C66.5009 7.85176 66.6293 8.13612 66.7394 8.448C66.8495 8.74153 66.9596 9.04423 67.0696 9.35611C67.1797 9.64964 67.3081 9.934 67.4549 10.2092C67.4182 10.3009 67.3999 10.3835 67.3999 10.4569C67.3999 10.5119 67.409 10.5761 67.4274 10.6495C67.4641 10.7229 67.4916 10.7962 67.5099 10.8696C67.5283 10.943 67.5283 11.0439 67.5099 11.1723C67.4549 11.9795 67.1889 12.6308 66.7119 13.1262C66.2532 13.6215 65.6937 14.0343 65.0333 14.3645C64.3728 14.6764 63.6665 14.9424 62.9143 15.1625C62.1621 15.3827 61.4834 15.6212 60.8779 15.878C60.8779 15.9514 60.9055 15.9881 60.9605 15.9881C61.0339 15.9881 61.0614 16.034 61.0431 16.1257C61.4834 16.4009 61.8319 16.621 62.0888 16.7861C62.3456 16.9512 62.5841 17.0888 62.8043 17.1989C63.0427 17.309 63.2904 17.4099 63.5473 17.5016C63.8224 17.575 64.1985 17.6667 64.6755 17.7768C65.1525 17.8869 65.5194 17.9786 65.7763 18.052C66.0514 18.107 66.2991 18.1621 66.5193 18.2171C66.7394 18.2538 66.9596 18.2905 67.1797 18.3272C67.4182 18.3455 67.7484 18.373 68.1704 18.4097C68.3355 18.5748 68.4731 18.7766 68.5832 19.0151C68.7116 19.2353 68.7941 19.4646 68.8308 19.7031C68.8675 19.9232 68.8767 20.1434 68.8583 20.3635C68.84 20.5653 68.7758 20.7305 68.6657 20.8589C68.6841 20.9139 68.7207 20.9414 68.7758 20.9414C68.8492 20.9231 68.9225 20.9231 68.9959 20.9414C68.8859 21.0148 68.7941 21.1065 68.7207 21.2166C68.6474 21.3267 68.574 21.4368 68.5006 21.5468C68.4272 21.6569 68.3447 21.7486 68.2529 21.822C68.1612 21.9138 68.0328 21.9688 67.8677 21.9871C67.299 22.2073 66.5835 22.2165 65.7212 22.0147C64.859 21.8312 63.7674 21.4826 62.4465 20.969C61.7861 20.7121 61.2449 20.492 60.8229 20.3085C60.4193 20.1067 60.0616 19.9141 59.7497 19.7306C59.4562 19.5288 59.181 19.3178 58.9241 19.0977C58.6856 18.8775 58.3921 18.6115 58.0435 18.2997ZM61.9787 8.86078C61.7769 9.15431 61.5476 9.42032 61.2907 9.65881C61.0522 9.89731 60.8137 10.145 60.5752 10.4018C60.3551 10.6403 60.1533 10.9155 59.9698 11.2274C59.7864 11.5209 59.658 11.8695 59.5846 12.2731C60.2267 12.1997 60.8963 12.0254 61.5934 11.7502C62.2906 11.4567 62.951 11.1815 63.5748 10.9247C63.5014 10.356 63.2996 9.89731 62.9694 9.54874C62.6575 9.20017 62.3273 8.97085 61.9787 8.86078Z" fill="#7052E0"/>
<path d="M83.6633 7.92514C83.2047 7.92514 82.7094 7.96184 82.1773 8.03522C81.6453 8.09026 81.1225 8.15447 80.6088 8.22785C80.2419 8.28289 79.8841 8.32875 79.5355 8.36544C79.2053 8.40213 78.9026 8.42965 78.6274 8.448C78.499 8.8516 78.3706 9.20934 78.2422 9.52122C78.1138 9.8331 77.9762 10.1358 77.8294 10.4293C77.6826 10.7412 77.545 11.0623 77.4166 11.3925C77.3065 11.7044 77.1965 12.0438 77.0864 12.4107C76.9029 12.7042 76.747 12.9794 76.6186 13.2362C76.5085 13.4747 76.4168 13.7499 76.3434 14.0618C76.1232 14.337 75.9581 14.6305 75.8481 14.9424C75.738 15.2359 75.6554 15.4928 75.6004 15.7129L75.4903 16.0431C75.3802 16.1532 75.316 16.2449 75.2977 16.3183C75.2793 16.3734 75.2335 16.4284 75.1601 16.4834C75.1418 16.6852 75.0775 16.887 74.9675 17.0888C74.9308 17.1806 74.9033 17.2723 74.8849 17.364C74.8666 17.4374 74.8574 17.4924 74.8574 17.5291C74.8574 17.7126 74.8115 17.8318 74.7198 17.8869C74.7381 17.9786 74.7381 18.0795 74.7198 18.1896C74.7015 18.2813 74.6831 18.373 74.6648 18.4648C74.6097 18.6849 74.5914 18.8592 74.6097 18.9876C74.6648 19.061 74.7106 19.1252 74.7473 19.1802C74.8024 19.2353 74.839 19.3087 74.8574 19.4004C74.9675 19.4738 75.05 19.5196 75.1051 19.538C75.1784 19.593 75.2885 19.6572 75.4353 19.7306L75.6829 20.0058C75.7747 20.5378 75.6921 20.9598 75.4353 21.2717C75.1601 21.6202 74.6923 21.7945 74.0318 21.7945H73.7016C73.6099 21.7028 73.5548 21.6294 73.5365 21.5744C73.3897 21.5193 73.2705 21.4735 73.1788 21.4368C73.087 21.4001 73.0045 21.3267 72.9311 21.2166C72.6926 21.1065 72.5 21.0148 72.3532 20.9414L72.1055 20.8038C72.1055 20.602 72.1055 20.492 72.1055 20.4736C71.9771 20.3085 71.8762 20.1251 71.8028 19.9232C71.7478 19.7214 71.7019 19.5196 71.6652 19.3178C71.6285 19.1527 71.5827 18.9968 71.5276 18.85C71.491 18.7033 71.4359 18.5748 71.3625 18.4648C71.3258 17.4007 71.4267 16.5018 71.6652 15.7679C71.9037 15.0341 72.1514 14.3278 72.4082 13.649C72.555 13.2821 72.7018 12.9152 72.8485 12.5483C72.9953 12.163 73.1237 11.7686 73.2338 11.365L73.4815 11.0898C73.6099 10.7962 73.7108 10.5578 73.7842 10.3743C73.8759 10.1725 73.9676 9.97069 74.0594 9.76889C74.1144 9.64047 74.1603 9.52122 74.1969 9.41115C74.252 9.28273 74.2978 9.17265 74.3345 9.08092C74.2245 9.08092 74.1236 9.0901 74.0318 9.10844C73.9401 9.10844 73.8484 9.11762 73.7566 9.13596C73.6466 9.15431 73.5457 9.17265 73.4539 9.191C73.3622 9.191 73.2705 9.191 73.1788 9.191C73.0503 9.191 72.9586 9.18183 72.9036 9.16348C72.7018 9.25521 72.4816 9.30107 72.2431 9.30107H71.9679C71.9129 9.30107 71.8579 9.30107 71.8028 9.30107C71.7661 9.28273 71.7294 9.27355 71.6928 9.27355C71.5093 9.27355 71.3625 9.30107 71.2525 9.35611C71.0323 9.35611 70.8213 9.35611 70.6195 9.35611H70.3443C70.3077 9.35611 70.2618 9.36528 70.2068 9.38363C70.1517 9.38363 70.1058 9.38363 70.0692 9.38363C69.9407 9.38363 69.8031 9.37446 69.6564 9.35611C69.5096 9.31942 69.3537 9.25521 69.1886 9.16348C68.9684 8.86995 68.8216 8.71401 68.7483 8.69566L68.5006 8.36544C68.4823 8.25537 68.4547 8.15447 68.418 8.06274C68.3814 7.95266 68.3447 7.83342 68.308 7.705C68.2346 7.52154 68.1612 7.32891 68.0878 7.1271C68.0328 6.90696 68.0053 6.65012 68.0053 6.35658C68.0236 6.20982 68.0603 6.09974 68.1153 6.02636C68.1704 5.95298 68.2162 5.88877 68.2529 5.83373L68.3355 5.42095L68.6932 5.44847H69.4637C70.0508 5.44847 70.647 5.43013 71.2525 5.39343C71.8579 5.3384 72.4816 5.28336 73.1237 5.22832C73.4906 5.19163 73.8575 5.15494 74.2245 5.11825C74.6097 5.08156 75.0042 5.04487 75.4078 5.00817C75.4811 4.84306 75.5545 4.68712 75.6279 4.54036L75.9031 4.40276C76.2333 4.38442 76.4626 4.43028 76.5911 4.54036C76.7378 4.63209 76.8571 4.72382 76.9488 4.81554C77.3524 4.77885 77.756 4.74216 78.1596 4.70547C78.5816 4.65043 79.0035 4.58622 79.4255 4.51284C80.0492 4.42111 80.673 4.33855 81.2967 4.26517C81.9388 4.19179 82.5534 4.1551 83.1405 4.1551C83.3973 4.1551 83.645 4.16427 83.8835 4.18262C84.122 4.20096 84.3421 4.22848 84.5439 4.26517L84.8191 4.4578C84.8742 4.56788 84.9475 4.66878 85.0393 4.76051C85.1493 4.85224 85.2594 4.94396 85.3695 5.03569C85.5896 5.2375 85.8098 5.47599 86.0299 5.75118C86.2501 6.02636 86.3326 6.42997 86.2776 6.96199C86.1308 7.18214 86.0208 7.31056 85.9474 7.34725L85.6997 7.67748L85.4245 7.64996C85.3145 7.64996 85.2135 7.6683 85.1218 7.705C85.0301 7.72334 84.9384 7.75086 84.8466 7.78755C84.7733 7.82424 84.6999 7.86093 84.6265 7.89763C84.5531 7.91597 84.4705 7.93432 84.3788 7.95266C84.2137 7.95266 84.0761 7.95266 83.966 7.95266C83.8743 7.93432 83.7734 7.92514 83.6633 7.92514Z" fill="#7052E0"/>
<path d="M85.3695 20.226C85.2594 20.8497 84.9475 21.2808 84.4339 21.5193C84.1954 21.5377 84.0119 21.5285 83.8835 21.4918C83.7734 21.4551 83.6542 21.4093 83.5257 21.3542C83.3606 21.2808 83.2139 21.235 83.0854 21.2166L82.7827 20.9965C82.746 20.9047 82.7002 20.813 82.6451 20.7213C82.5901 20.6296 82.5259 20.5378 82.4525 20.4461C82.3058 20.2626 82.159 20.0333 82.0122 19.7581C81.9021 19.2261 81.8838 18.7858 81.9572 18.4372C82.0306 18.0703 82.1223 17.7126 82.2324 17.364C82.2691 17.2539 82.3058 17.1439 82.3424 17.0338C82.3791 16.9054 82.4158 16.7861 82.4525 16.6761C81.9755 16.4192 81.6178 16.0523 81.3793 15.5753C81.1408 15.0983 81.0032 14.6397 80.9665 14.1994C81.0216 13.8508 81.1225 13.5756 81.2692 13.3738C81.416 13.1537 81.5811 12.9794 81.7646 12.851C81.9664 12.7226 82.1682 12.6216 82.37 12.5483C82.5901 12.4749 82.8011 12.4107 83.0029 12.3556L83.3606 12.4932C83.5257 12.6583 83.6909 12.7868 83.856 12.8785C83.9844 12.8235 84.0669 12.7409 84.1036 12.6308C84.1587 12.5024 84.2045 12.3648 84.2412 12.218C84.2963 12.0529 84.3513 11.8878 84.4063 11.7227C84.4797 11.5576 84.5623 11.3925 84.654 11.2274C84.6357 10.9889 84.6723 10.7687 84.7641 10.5669C84.6357 10.4752 84.4981 10.4202 84.3513 10.4018C84.3146 10.4018 84.2229 10.3835 84.0761 10.3468C83.856 10.1817 83.7 10.0441 83.6083 9.934C83.5349 9.80558 83.4615 9.68633 83.3881 9.57626C83.2781 9.33776 83.1405 9.14513 82.9754 8.99837L82.7002 8.80574L82.8378 8.53055C82.8745 8.49386 82.8928 8.448 82.8928 8.39296C82.8928 8.33792 82.8561 8.25537 82.7827 8.14529C82.746 7.94349 82.746 7.8059 82.7827 7.73251L82.8378 7.45733C82.9845 7.25553 83.0579 7.14545 83.0579 7.1271L83.3056 6.87944C83.6725 6.78771 84.0302 6.68681 84.3788 6.57673C84.7457 6.44831 85.1126 6.31989 85.4796 6.19147C85.8281 6.0814 86.1767 5.97132 86.5253 5.86125C86.8922 5.73283 87.2591 5.62276 87.626 5.53103C87.7544 5.4393 87.892 5.38426 88.0388 5.36592C88.1856 5.32922 88.3231 5.30171 88.4516 5.28336C88.5616 5.26501 88.6625 5.25584 88.7543 5.25584C88.846 5.2375 88.9102 5.2008 88.9469 5.14577C89.1671 5.07238 89.4239 4.98983 89.7174 4.8981C90.1761 4.76968 90.7815 4.63209 91.5337 4.48532C92.2858 4.32021 93.1297 4.19179 94.0654 4.10006L94.5332 4.07254C94.6249 4.09089 94.7166 4.10006 94.8084 4.10006C94.9001 4.08171 94.9918 4.07254 95.0835 4.07254C95.9091 4.07254 96.432 4.32021 96.6521 4.81554C96.8172 4.90727 96.964 5.00817 97.0924 5.11825C97.2208 5.22832 97.3401 5.3384 97.4501 5.44847C97.5052 5.52185 97.5602 5.58606 97.6153 5.6411C97.6886 5.69614 97.7437 5.73283 97.7804 5.75118C98.0922 6.22816 98.1931 6.65012 98.0831 7.01703C97.918 7.25553 97.707 7.39312 97.4501 7.42981L97.1474 7.59492C96.9456 7.57658 96.7897 7.5674 96.6796 7.5674C96.5879 7.5674 96.487 7.5674 96.3769 7.5674C95.9183 7.5674 95.3863 7.59492 94.7808 7.64996C94.1754 7.705 93.5517 7.78755 92.9096 7.89763C92.2858 7.98935 91.6804 8.1086 91.0934 8.25537C90.5063 8.40213 89.9926 8.55807 89.5523 8.72318L89.057 8.97085C88.9286 9.17265 88.8552 9.33776 88.8368 9.46618C88.8185 9.57626 88.8001 9.68633 88.7818 9.79641C88.7634 9.86979 88.7451 9.94317 88.7268 10.0166C88.7268 10.0899 88.7176 10.1725 88.6992 10.2642C88.3874 10.6495 88.2314 11.1081 88.2314 11.6402C88.103 11.8603 88.0204 12.0254 87.9838 12.1355C87.9471 12.2272 87.9471 12.3465 87.9838 12.4932C88.3323 12.64 88.6625 12.695 88.9744 12.6583C89.2863 12.6216 89.5982 12.5758 89.9101 12.5207C90.332 12.4474 90.7631 12.3832 91.2034 12.3281C91.6621 12.2731 92.1299 12.2456 92.6069 12.2456H93.4875L93.2673 12.4657L93.4049 12.851C93.515 12.906 93.5884 12.9427 93.6251 12.961C93.6801 12.9794 93.7351 13.0069 93.7902 13.0436L93.9278 13.2913C94.0012 13.328 94.0654 13.3922 94.1204 13.4839C94.1938 13.5756 94.2396 13.7132 94.258 13.8967L93.1297 15.4928L92.7445 15.6028C92.4326 15.5845 92.1574 15.6212 91.9189 15.7129C91.7905 15.7496 91.6621 15.7863 91.5337 15.823C91.4052 15.8413 91.2676 15.8505 91.1209 15.8505C90.754 15.9239 90.4421 15.9789 90.1852 16.0156C89.9467 16.0523 89.6991 16.089 89.4422 16.1257C89.112 16.1624 88.791 16.2174 88.4791 16.2908C88.1672 16.3458 87.8737 16.4284 87.5985 16.5385C87.415 16.5385 87.2866 16.5385 87.2132 16.5385C87.0665 16.5385 86.9105 16.566 86.7454 16.621C86.5987 16.6577 86.4611 16.6944 86.3326 16.7311C86.2409 16.8045 86.1767 16.887 86.14 16.9788C86.1033 17.0521 86.0666 17.1347 86.0299 17.2264C85.9566 17.4833 85.8556 17.6942 85.7272 17.8594V18.2721C85.5805 18.4556 85.4887 18.6024 85.452 18.7124C85.4337 18.8042 85.4062 18.8959 85.3695 18.9876C85.3328 19.0427 85.3053 19.0977 85.2869 19.1527C85.2686 19.1894 85.2594 19.2353 85.2594 19.2903C85.4062 19.5655 85.4429 19.8774 85.3695 20.226Z" fill="#7052E0"/>
<path d="M110.384 12.906C110.366 13.1262 110.384 13.3371 110.439 13.5389C110.494 13.7407 110.558 13.9425 110.632 14.1443C110.723 14.3278 110.806 14.5204 110.879 14.7222C110.953 14.924 111.008 15.1258 111.044 15.3276C111.081 15.5845 111.081 15.8688 111.044 16.1807C111.008 16.4743 110.943 16.7678 110.852 17.0613C110.76 17.3365 110.641 17.5933 110.494 17.8318C110.347 18.052 110.173 18.2171 109.971 18.3272C109.714 18.6574 109.402 18.9142 109.035 19.0977C108.669 19.2811 108.329 19.5013 108.017 19.7581C107.815 19.8866 107.586 19.9783 107.329 20.0333C107.091 20.0884 106.843 20.1434 106.586 20.1984C106.385 20.3085 106.146 20.4278 105.871 20.5562C105.596 20.6662 105.311 20.7763 105.018 20.8864C104.724 20.9781 104.431 21.0515 104.137 21.1065C103.844 21.1432 103.587 21.1524 103.367 21.1341C102.816 21.3359 102.275 21.4643 101.743 21.5193C101.229 21.5927 100.624 21.556 99.9268 21.4093C99.2664 21.501 98.6518 21.4735 98.0831 21.3267C97.5327 21.1799 97.0374 20.9506 96.5971 20.6387C96.1751 20.3085 95.799 19.9232 95.4688 19.483C95.1569 19.0243 94.9001 18.5473 94.6983 18.052C94.5515 17.0063 94.5882 16.0615 94.8084 15.2176C95.0285 14.3553 95.3404 13.5665 95.744 12.851C96.1659 12.1171 96.6429 11.4475 97.175 10.8421C97.707 10.2184 98.2207 9.61295 98.716 9.02589C98.8261 9.06258 98.9086 9.06258 98.9637 9.02589C99.0371 8.97085 99.1013 8.90664 99.1563 8.83326C99.2113 8.74153 99.2664 8.65897 99.3214 8.58559C99.3948 8.51221 99.4773 8.46634 99.5691 8.448C99.6975 8.17281 99.881 7.97101 100.119 7.84259C100.376 7.69582 100.578 7.49402 100.725 7.23718C100.89 7.20049 101.028 7.14545 101.138 7.07207C101.248 6.99868 101.349 6.91613 101.44 6.8244C101.55 6.73267 101.66 6.65012 101.771 6.57673C101.881 6.485 102.009 6.42079 102.156 6.3841V6.0814C102.486 5.93463 102.725 5.76952 102.871 5.58606C103.036 5.38426 103.229 5.14577 103.449 4.87058C103.614 4.85224 103.743 4.84306 103.834 4.84306C103.945 4.84306 104.1 4.82472 104.302 4.78803C104.449 4.53118 104.577 4.33855 104.688 4.21013C104.816 4.08171 104.999 3.94412 105.238 3.79736C105.458 3.90743 105.697 3.98081 105.953 4.0175C106.229 4.0542 106.467 4.17344 106.669 4.37525C106.687 4.5587 106.742 4.70547 106.834 4.81554C106.926 4.90727 107.027 4.999 107.137 5.09073C107.247 5.16411 107.348 5.24667 107.439 5.3384C107.549 5.43013 107.623 5.55855 107.66 5.72366C107.733 5.742 107.779 5.73283 107.797 5.69614C107.834 5.65945 107.889 5.65027 107.962 5.66862C108.017 5.92546 108.081 6.09974 108.155 6.19147C108.228 6.26486 108.302 6.42079 108.375 6.65929C108.283 6.84275 108.21 7.03538 108.155 7.23718C108.118 7.42064 108.008 7.55823 107.825 7.64996C107.806 7.77838 107.843 7.85176 107.935 7.87011C108.026 7.87011 108.081 7.91597 108.1 8.0077C108.118 8.17281 108.091 8.29206 108.017 8.36544C108.458 9.08092 108.852 9.84227 109.201 10.6495C109.549 11.4384 109.944 12.1905 110.384 12.906ZM106.944 15.5203C107.017 15.3185 107.109 15.1534 107.219 15.0249C107.348 14.8965 107.421 14.7039 107.439 14.447C107.348 14.3003 107.293 14.1902 107.274 14.1168C107.256 14.0251 107.247 13.8875 107.247 13.704C106.843 13.1353 106.495 12.5299 106.201 11.8878C105.908 11.2274 105.577 10.6128 105.21 10.0441C105.174 10.1175 105.109 10.1908 105.018 10.2642C104.926 10.3376 104.825 10.3193 104.715 10.2092C104.678 10.356 104.614 10.466 104.522 10.5394C104.431 10.5944 104.33 10.622 104.22 10.622C104.11 10.6036 103.99 10.5761 103.862 10.5394C103.752 10.4844 103.651 10.4202 103.559 10.3468C103.027 10.7687 102.495 11.1815 101.963 11.5851C101.431 11.9887 100.954 12.4565 100.532 12.9886C100.459 13.0253 100.413 13.0436 100.395 13.0436C100.376 13.0253 100.321 13.0344 100.23 13.0711C100.083 13.4197 99.8993 13.7407 99.6792 14.0343C99.4773 14.3095 99.2755 14.5938 99.0737 14.8873C98.8719 15.1809 98.6977 15.4928 98.5509 15.823C98.4041 16.1532 98.3216 16.5385 98.3032 16.9788C98.6151 17.2356 98.982 17.3915 99.404 17.4466C99.8259 17.5016 100.257 17.5108 100.697 17.4741C101.156 17.4374 101.596 17.3824 102.018 17.309C102.459 17.2173 102.862 17.1714 103.229 17.1714C104 16.9879 104.66 16.7494 105.21 16.4559C105.761 16.144 106.339 15.8322 106.944 15.5203Z" fill="#7052E0"/>
<path d="M119.327 20.8589C118.814 21.024 118.254 21.1891 117.649 21.3542C117.043 21.5193 116.438 21.6019 115.833 21.6019C114.915 21.6019 114.191 21.3726 113.659 20.9139C113.567 20.7121 113.484 20.5745 113.411 20.5011C113.356 20.4278 113.301 20.3544 113.246 20.281C113.209 20.1893 113.182 20.07 113.163 19.9232C112.943 19.6664 112.769 19.3729 112.64 19.0427C112.512 18.6941 112.42 18.3455 112.365 17.9969C112.329 17.63 112.319 17.2631 112.338 16.8962C112.374 16.5293 112.439 16.1807 112.53 15.8505C112.567 15.7771 112.585 15.7037 112.585 15.6303C112.604 15.557 112.622 15.4744 112.64 15.3827C112.714 15.0891 112.787 14.8048 112.861 14.5296C112.952 14.2544 113.072 14.0159 113.218 13.8141C113.145 13.649 113.145 13.4656 113.218 13.2637C113.292 13.0619 113.374 12.8785 113.466 12.7134C113.723 12.0162 113.934 11.4292 114.099 10.9522C114.282 10.4569 114.466 9.97069 114.649 9.4937C114.961 8.66815 115.255 7.85176 115.53 7.04455C115.805 6.23734 116.053 5.36592 116.273 4.43028C116.42 4.33855 116.53 4.27434 116.603 4.23765C116.713 4.20096 116.805 4.17344 116.878 4.1551C117.208 4.32021 117.594 4.48532 118.034 4.65043C118.474 4.7972 118.841 4.87058 119.135 4.87058C119.282 4.96231 119.373 5.03569 119.41 5.09073C119.447 5.12742 119.483 5.16411 119.52 5.2008C119.722 5.4393 119.896 5.68697 120.043 5.94381C120.19 6.1823 120.236 6.50335 120.18 6.90696C120.07 7.07207 119.988 7.15462 119.933 7.15462C119.841 7.52154 119.74 7.83342 119.63 8.09026C119.538 8.3471 119.437 8.60394 119.327 8.86078C119.199 9.13596 119.08 9.41115 118.97 9.68633C118.86 9.96152 118.768 10.3009 118.694 10.7045C118.621 10.7962 118.566 10.8788 118.529 10.9522C118.511 11.0256 118.484 11.1081 118.447 11.1999C118.41 11.2916 118.364 11.3925 118.309 11.5026C118.273 11.5943 118.208 11.6768 118.117 11.7502C118.062 12.2272 117.97 12.6125 117.841 12.906C117.731 13.1995 117.612 13.4931 117.484 13.7866C117.264 14.3186 117.062 14.8507 116.878 15.3827C116.713 15.9147 116.612 16.5201 116.576 17.1989C116.667 17.1622 116.75 17.1439 116.823 17.1439C116.915 17.1439 116.998 17.1439 117.071 17.1439C117.236 17.1439 117.429 17.1714 117.649 17.2264C118.199 16.9329 118.795 16.7586 119.437 16.7036C120.098 16.6485 120.749 16.6118 121.391 16.5935C121.648 16.5935 121.905 16.5935 122.162 16.5935C122.419 16.5935 122.657 16.5752 122.877 16.5385C123.042 16.6302 123.143 16.6852 123.18 16.7036C123.235 16.7036 123.308 16.7036 123.4 16.7036C123.529 16.7036 123.639 16.7127 123.73 16.7311C123.951 16.9329 124.162 17.0797 124.363 17.1714C124.565 17.2631 124.776 17.3457 124.996 17.4191C125.198 17.4924 125.391 17.575 125.574 17.6667C125.776 17.7401 125.969 17.8502 126.152 17.9969L126.345 19.1802C126.473 19.3454 126.528 19.4554 126.51 19.5105C126.51 19.6572 126.473 19.7673 126.4 19.8407L126.455 20.1434C126.18 20.1984 125.987 20.2626 125.877 20.336C125.785 20.4094 125.693 20.492 125.602 20.5837C125.455 20.602 125.345 20.6112 125.271 20.6112C125.216 20.6112 125.161 20.6112 125.106 20.6112C124.849 20.6112 124.538 20.6571 124.171 20.7488C123.675 20.5837 123.162 20.5011 122.63 20.5011C122.428 20.5011 122.217 20.5103 121.997 20.5287C121.777 20.547 121.556 20.5653 121.336 20.5837C121.116 20.6204 120.887 20.6479 120.648 20.6662C120.428 20.6846 120.199 20.6938 119.96 20.6938L119.327 20.8589Z" fill="#7052E0"/>
<path d="M132.922 19.2353C133.013 19.7857 132.977 20.2168 132.812 20.5287C132.665 20.8405 132.445 21.0699 132.151 21.2166C131.876 21.3817 131.555 21.4735 131.188 21.4918C130.821 21.5102 130.472 21.4918 130.142 21.4368C129.959 21.1799 129.794 20.8589 129.647 20.4736C129.5 20.0884 129.363 19.6939 129.234 19.2903C129.106 18.8684 128.986 18.4556 128.876 18.052C128.785 17.6484 128.702 17.2906 128.629 16.9788C128.72 16.7586 128.775 16.5109 128.794 16.2358C128.831 15.9422 128.849 15.6487 128.849 15.3552C128.867 15.0616 128.876 14.7681 128.876 14.4746C128.895 14.1627 128.922 13.8692 128.959 13.594C129.087 12.8235 129.271 12.0896 129.509 11.3925C129.766 10.6953 129.968 9.97069 130.115 9.21852C130.151 9.05341 130.133 8.89747 130.06 8.7507C130.005 8.60394 129.995 8.46634 130.032 8.33792C130.05 8.26454 130.106 8.21868 130.197 8.20033C130.289 8.16364 130.344 8.09943 130.362 8.0077C130.417 7.8059 130.427 7.64079 130.39 7.51237C130.372 7.38395 130.408 7.22801 130.5 7.04455C130.592 6.89778 130.702 6.68681 130.83 6.41162C130.977 6.11809 131.032 5.81539 130.995 5.50351C131.16 5.39343 131.316 5.26501 131.463 5.11825C131.61 4.97148 131.757 4.84306 131.903 4.73299C132.069 4.60457 132.243 4.49449 132.426 4.40276C132.628 4.31104 132.867 4.26517 133.142 4.26517C133.289 4.44863 133.38 4.65043 133.417 4.87058C133.472 5.09073 133.518 5.31088 133.555 5.53103C133.61 5.75118 133.683 5.96215 133.775 6.16395C133.866 6.34741 134.022 6.49418 134.242 6.60425C134.242 6.75102 134.242 6.93447 134.242 7.15462C134.242 7.37477 134.252 7.59492 134.27 7.81507C134.288 8.01687 134.325 8.2095 134.38 8.39296C134.453 8.55807 134.564 8.66815 134.71 8.72318C134.38 9.60378 134.068 10.4752 133.775 11.3374C133.499 12.1997 133.27 13.0711 133.087 13.9517C132.903 14.814 132.784 15.6854 132.729 16.566C132.692 17.4466 132.756 18.3363 132.922 19.2353Z" fill="#7052E0"/>
<path d="M151.607 12.906C151.588 13.1262 151.607 13.3371 151.662 13.5389C151.717 13.7407 151.781 13.9425 151.854 14.1443C151.946 14.3278 152.029 14.5204 152.102 14.7222C152.175 14.924 152.23 15.1258 152.267 15.3276C152.304 15.5845 152.304 15.8688 152.267 16.1807C152.23 16.4743 152.166 16.7678 152.075 17.0613C151.983 17.3365 151.864 17.5933 151.717 17.8318C151.57 18.052 151.396 18.2171 151.194 18.3272C150.937 18.6574 150.625 18.9142 150.258 19.0977C149.891 19.2811 149.552 19.5013 149.24 19.7581C149.038 19.8866 148.809 19.9783 148.552 20.0333C148.314 20.0884 148.066 20.1434 147.809 20.1984C147.607 20.3085 147.369 20.4278 147.094 20.5562C146.818 20.6662 146.534 20.7763 146.241 20.8864C145.947 20.9781 145.654 21.0515 145.36 21.1065C145.066 21.1432 144.81 21.1524 144.589 21.1341C144.039 21.3359 143.498 21.4643 142.966 21.5193C142.452 21.5927 141.847 21.556 141.15 21.4093C140.489 21.501 139.875 21.4735 139.306 21.3267C138.756 21.1799 138.26 20.9506 137.82 20.6387C137.398 20.3085 137.022 19.9232 136.692 19.483C136.38 19.0243 136.123 18.5473 135.921 18.052C135.774 17.0063 135.811 16.0615 136.031 15.2176C136.251 14.3553 136.563 13.5665 136.967 12.851C137.389 12.1171 137.866 11.4475 138.398 10.8421C138.93 10.2184 139.444 9.61295 139.939 9.02589C140.049 9.06258 140.131 9.06258 140.187 9.02589C140.26 8.97085 140.324 8.90664 140.379 8.83326C140.434 8.74153 140.489 8.65897 140.544 8.58559C140.618 8.51221 140.7 8.46634 140.792 8.448C140.92 8.17281 141.104 7.97101 141.342 7.84259C141.599 7.69582 141.801 7.49402 141.948 7.23718C142.113 7.20049 142.25 7.14545 142.36 7.07207C142.471 6.99868 142.571 6.91613 142.663 6.8244C142.773 6.73267 142.883 6.65012 142.993 6.57673C143.103 6.485 143.232 6.42079 143.379 6.3841V6.0814C143.709 5.93463 143.947 5.76952 144.094 5.58606C144.259 5.38426 144.452 5.14577 144.672 4.87058C144.837 4.85224 144.966 4.84306 145.057 4.84306C145.167 4.84306 145.323 4.82472 145.525 4.78803C145.672 4.53118 145.8 4.33855 145.91 4.21013C146.039 4.08171 146.222 3.94412 146.461 3.79736C146.681 3.90743 146.919 3.98081 147.176 4.0175C147.451 4.0542 147.69 4.17344 147.892 4.37525C147.91 4.5587 147.965 4.70547 148.057 4.81554C148.149 4.90727 148.249 4.999 148.36 5.09073C148.47 5.16411 148.571 5.24667 148.662 5.3384C148.772 5.43013 148.846 5.55855 148.882 5.72366C148.956 5.742 149.002 5.73283 149.02 5.69614C149.057 5.65945 149.112 5.65027 149.185 5.66862C149.24 5.92546 149.304 6.09974 149.378 6.19147C149.451 6.26486 149.524 6.42079 149.598 6.65929C149.506 6.84275 149.433 7.03538 149.378 7.23718C149.341 7.42064 149.231 7.55823 149.047 7.64996C149.029 7.77838 149.066 7.85176 149.158 7.87011C149.249 7.87011 149.304 7.91597 149.323 8.0077C149.341 8.17281 149.314 8.29206 149.24 8.36544C149.68 9.08092 150.075 9.84227 150.423 10.6495C150.772 11.4384 151.166 12.1905 151.607 12.906ZM148.167 15.5203C148.24 15.3185 148.332 15.1534 148.442 15.0249C148.571 14.8965 148.644 14.7039 148.662 14.447C148.571 14.3003 148.515 14.1902 148.497 14.1168C148.479 14.0251 148.47 13.8875 148.47 13.704C148.066 13.1353 147.717 12.5299 147.424 11.8878C147.13 11.2274 146.8 10.6128 146.433 10.0441C146.397 10.1175 146.332 10.1908 146.241 10.2642C146.149 10.3376 146.048 10.3193 145.938 10.2092C145.901 10.356 145.837 10.466 145.745 10.5394C145.654 10.5944 145.553 10.622 145.443 10.622C145.332 10.6036 145.213 10.5761 145.085 10.5394C144.975 10.4844 144.874 10.4202 144.782 10.3468C144.25 10.7687 143.718 11.1815 143.186 11.5851C142.654 11.9887 142.177 12.4565 141.755 12.9886C141.682 13.0253 141.636 13.0436 141.617 13.0436C141.599 13.0253 141.544 13.0344 141.452 13.0711C141.306 13.4197 141.122 13.7407 140.902 14.0343C140.7 14.3095 140.498 14.5938 140.297 14.8873C140.095 15.1809 139.92 15.4928 139.774 15.823C139.627 16.1532 139.544 16.5385 139.526 16.9788C139.838 17.2356 140.205 17.3915 140.627 17.4466C141.049 17.5016 141.48 17.5108 141.92 17.4741C142.379 17.4374 142.819 17.3824 143.241 17.309C143.681 17.2173 144.085 17.1714 144.452 17.1714C145.222 16.9879 145.883 16.7494 146.433 16.4559C146.984 16.144 147.561 15.8322 148.167 15.5203Z" fill="#7052E0"/>
<path d="M161.266 5.72366C161.596 5.48516 161.954 5.0999 162.339 4.56788C162.724 4.0175 163.128 3.47631 163.55 2.94428C163.99 2.41225 164.43 1.95361 164.871 1.56835C165.329 1.16474 165.788 0.99046 166.247 1.0455C166.54 1.70594 166.696 2.36639 166.714 3.02684C166.733 3.66894 166.669 4.40276 166.522 5.22832C166.357 5.43013 166.118 5.70531 165.806 6.05388C165.494 6.40245 165.146 6.79688 164.761 7.23718C164.394 7.65913 164.008 8.09943 163.605 8.55807C163.201 9.01671 162.816 9.45701 162.449 9.87896C162.1 10.3009 161.789 10.6862 161.513 11.0347C161.257 11.3833 161.082 11.6585 160.991 11.8603C160.734 12.1355 160.385 12.5207 159.945 13.0161C159.523 13.5114 159.083 14.0343 158.624 14.5846C158.165 15.135 157.716 15.6762 157.276 16.2082C156.854 16.7219 156.505 17.153 156.23 17.5016C156.212 17.5933 156.239 17.6759 156.312 17.7493C156.386 17.8227 156.441 17.9052 156.478 17.9969C156.276 18.1804 156.156 18.3547 156.12 18.5198C156.083 18.6666 156.074 18.8225 156.092 18.9876C156.111 19.1527 156.138 19.3178 156.175 19.483C156.212 19.6297 156.221 19.7948 156.202 19.9783C156.074 20.0884 155.964 20.2168 155.872 20.3635C155.799 20.5103 155.716 20.6571 155.624 20.8038C155.551 20.9323 155.45 21.0607 155.322 21.1891C155.212 21.3175 155.065 21.4276 154.881 21.5193C154.496 21.4826 154.184 21.4276 153.946 21.3542C153.707 21.2992 153.423 21.2441 153.093 21.1891C152.781 20.9323 152.57 20.6204 152.46 20.2535C152.35 19.8682 152.304 19.483 152.322 19.0977C152.322 18.6941 152.368 18.2997 152.46 17.9144C152.533 17.5108 152.616 17.1622 152.707 16.8687C152.909 16.7403 152.918 16.6485 152.735 16.5935C152.808 16.3367 152.937 16.1257 153.12 15.9606C153.304 15.7771 153.395 15.6212 153.395 15.4928C153.524 15.291 153.772 14.9882 154.138 14.5846C154.505 14.1627 154.9 13.7132 155.322 13.2362C155.762 12.7592 156.184 12.3006 156.588 11.8603C156.991 11.4017 157.303 11.0439 157.523 10.7871C157.633 10.4935 157.881 10.1175 158.266 9.65881C158.67 9.18183 159.083 8.69566 159.505 8.20033C159.945 7.705 160.339 7.23718 160.688 6.79688C161.055 6.35658 161.247 5.99884 161.266 5.72366Z" fill="#313235"/>
<path d="M180.033 12.4657C180.033 12.6859 180.116 12.8877 180.281 13.0711C180.465 13.2362 180.602 13.4289 180.694 13.649C180.804 13.9059 180.831 14.1627 180.776 14.4195C180.74 14.6764 180.639 14.9057 180.474 15.1075C180.309 15.3093 180.088 15.4836 179.813 15.6303C179.556 15.7771 179.254 15.878 178.905 15.9331C178.685 15.8413 178.511 15.8046 178.382 15.823C178.272 15.8413 178.116 15.8046 177.914 15.7129C177.584 15.9331 177.181 16.1532 176.704 16.3734C176.245 16.5752 175.796 16.6302 175.355 16.5385C175.3 16.6852 175.19 16.7586 175.025 16.7586C174.878 16.7586 174.787 16.8412 174.75 17.0063C173.998 17.1347 173.264 17.3365 172.548 17.6117C171.833 17.8869 171.136 18.1896 170.457 18.5198C169.778 18.8317 169.118 19.1527 168.476 19.483C167.852 19.8132 167.246 20.0975 166.659 20.336C166.403 20.2626 166.164 20.2718 165.944 20.3635C165.724 20.4369 165.494 20.4644 165.256 20.4461C165.311 20.3911 165.32 20.3544 165.283 20.336C165.247 20.3177 165.192 20.3085 165.118 20.3085C165.045 20.2902 164.962 20.281 164.871 20.281C164.797 20.2626 164.733 20.226 164.678 20.1709C164.476 20.0425 164.329 19.9416 164.238 19.8682C164.128 19.7948 164.045 19.7398 163.99 19.7031C163.917 19.6664 163.843 19.6205 163.77 19.5655C163.697 19.5105 163.596 19.4279 163.467 19.3178C163.541 19.1344 163.586 18.9876 163.605 18.8775C163.605 18.7491 163.596 18.639 163.577 18.5473C163.559 18.4372 163.541 18.3272 163.522 18.2171C163.486 18.107 163.476 17.9603 163.495 17.7768C164.504 17.1347 165.394 16.6302 166.164 16.2633C166.935 15.878 167.687 15.5478 168.421 15.2726C169.154 14.9974 169.907 14.7406 170.677 14.5021C171.466 14.2452 172.374 13.915 173.401 13.5114C172.979 13.2729 172.429 13.0528 171.75 12.851C171.09 12.6492 170.42 12.429 169.741 12.1905C169.081 11.9337 168.476 11.6218 167.925 11.2549C167.375 10.888 167.008 10.411 166.825 9.82393C166.568 9.80558 166.338 9.65881 166.137 9.38363C165.953 9.10844 165.88 8.78739 165.916 8.42048C166.1 8.3104 166.265 8.19116 166.412 8.06274C166.577 7.91597 166.779 7.8059 167.017 7.73251C167.219 7.69582 167.476 7.71417 167.788 7.78755C168.118 7.86093 168.466 7.96184 168.833 8.09026C169.219 8.21868 169.613 8.35627 170.017 8.50303C170.439 8.6498 170.833 8.76905 171.2 8.86078C171.567 8.9525 171.961 9.03506 172.383 9.10844C172.824 9.18183 173.227 9.2919 173.594 9.43867C173.759 9.51205 173.897 9.60378 174.007 9.71385C174.135 9.80558 174.282 9.86979 174.447 9.90648C174.777 9.96152 175.126 10.0716 175.493 10.2367C175.878 10.3835 176.263 10.5486 176.649 10.732C177.034 10.9155 177.41 11.1081 177.777 11.3099C178.162 11.4934 178.52 11.6493 178.85 11.7777C178.832 11.8878 178.951 12.0254 179.208 12.1905C179.465 12.3556 179.74 12.4474 180.033 12.4657Z" fill="#313235"/>
</svg>
